<svg width="50" height="50" viewBox="0 0 50 50" fill="none" xmlns="http://www.w3.org/2000/svg">
<rect width="50" height="50" rx="25" fill="#7D67BA"/>
<path fill-rule="evenodd" clip-rule="evenodd" d="M30.2609 14H19.7391C16.5695 14 14 16.5695 14 19.7391V30.2609C14 33.4305 16.5695 36 19.7391 36H30.2609C33.4305 36 36 33.4305 36 30.2609V19.7391C36 16.5695 33.4305 14 30.2609 14ZM25.0012 30.7395C28.1708 30.7395 30.7403 28.17 30.7403 25.0003C30.7403 21.8307 28.1708 19.2612 25.0012 19.2612C21.8315 19.2612 19.262 21.8307 19.262 25.0003C19.262 28.17 21.8315 30.7395 25.0012 30.7395ZM33.1316 18.3054C33.1316 19.0978 32.4892 19.7402 31.6968 19.7402C30.9044 19.7402 30.262 19.0978 30.262 18.3054C30.262 17.513 30.9044 16.8706 31.6968 16.8706C32.4892 16.8706 33.1316 17.513 33.1316 18.3054Z" fill="white"/>
</svg>