<svg width="50" height="50" viewBox="0 0 50 50" fill="none" xmlns="http://www.w3.org/2000/svg">
<rect width="50" height="50" rx="25" fill="#7D67BA"/>
<path fill-rule="evenodd" clip-rule="evenodd" d="M15.5054 21.4128H19.4036V34.9984H15.5054V21.4128ZM17.3542 19.7138H17.326C15.9149 19.7138 15 18.6753 15 17.3601C15 16.0181 15.9419 15 17.3812 15C18.8194 15 19.7037 16.0155 19.7319 17.3563C19.7319 18.6714 18.8194 19.7138 17.3542 19.7138ZM35.0004 35.0001H30.5801V27.9685C30.5801 26.1283 29.8887 24.8733 28.3682 24.8733C27.2052 24.8733 26.5585 25.7198 26.2574 26.5381C26.1445 26.83 26.1622 27.2385 26.1622 27.6483V35.0001H21.783C21.783 35.0001 21.8395 22.5452 21.783 21.4132H26.1622V23.5453C26.4209 22.6131 27.8202 21.2826 30.0533 21.2826C32.8238 21.2826 35.0004 23.238 35.0004 27.4447V35.0001Z" fill="white"/>
</svg>