<svg width="50" height="50" viewBox="0 0 50 50" fill="none" xmlns="http://www.w3.org/2000/svg">
<rect width="50" height="50" rx="25" fill="#7D67BA"/>
<path d="M38.9347 19.3155C38.9347 19.3155 38.657 17.3549 37.8016 16.494C36.7186 15.361 35.5078 15.3555 34.9524 15.2888C30.9757 15 25.0051 15 25.0051 15H24.994C24.994 15 19.0234 15 15.0468 15.2888C14.4913 15.3555 13.2806 15.361 12.1975 16.494C11.3422 17.3549 11.0701 19.3155 11.0701 19.3155C11.0701 19.3155 10.7812 21.6204 10.7812 23.9198V26.0747C10.7812 28.3741 11.0645 30.679 11.0645 30.679C11.0645 30.679 11.3422 32.6396 12.192 33.5005C13.275 34.6335 14.6968 34.5946 15.33 34.7168C17.6072 34.9334 24.9996 35.0001 24.9996 35.0001C24.9996 35.0001 30.9757 34.989 34.9524 34.7057C35.5078 34.6391 36.7186 34.6335 37.8016 33.5005C38.657 32.6396 38.9347 30.679 38.9347 30.679C38.9347 30.679 39.2179 28.3797 39.2179 26.0747V23.9198C39.2179 21.6204 38.9347 19.3155 38.9347 19.3155ZM22.0615 28.6907V20.6984L29.7427 24.7085L22.0615 28.6907Z" fill="white"/>
</svg>